<?xml version="1.0" encoding="utf-8"?>
<!-- Generator: Adobe Illustrator 16.0.0, SVG Export Plug-In . SVG Version: 6.00 Build 0)  -->
<!DOCTYPE svg PUBLIC "-//W3C//DTD SVG 1.1//EN" "http://www.w3.org/Graphics/SVG/1.1/DTD/svg11.dtd">
<svg version="1.1" id="Layer_1" xmlns="http://www.w3.org/2000/svg" xmlns:xlink="http://www.w3.org/1999/xlink" x="0px" y="0px"
	 width="268px" height="338px" viewBox="0 0 268 338" enable-background="new 0 0 268 338" xml:space="preserve">
<rect x="10.333" y="6.667" fill="#FFFFFF" stroke="#000000" stroke-width="2" stroke-miterlimit="10" width="250" height="149"/>
<path fill="#FFFFFF" stroke="#000000" stroke-miterlimit="10" d="M22.333,82.167h85.5c11.75,0,15.513,14.125,32.188,14.125
	c13.563,0,20.688-14.125,35.313-14.125h65"/>
<circle fill="#FFFFFF" stroke="#000000" stroke-miterlimit="10" cx="139.333" cy="64.667" r="17"/>
<line fill="none" stroke="#000000" stroke-width="2" stroke-miterlimit="10" x1="54.333" y1="81.667" x2="54.333" y2="117.667"/>
<line fill="none" stroke="#000000" stroke-width="2" stroke-miterlimit="10" x1="47.583" y1="111.167" x2="54.833" y2="117.667"/>
<line fill="none" stroke="#000000" stroke-width="2" stroke-miterlimit="10" x1="62.583" y1="111.167" x2="54.833" y2="117.667"/>
<rect x="10.333" y="181.667" fill="none" stroke="#000000" stroke-width="2" stroke-miterlimit="10" width="250" height="149"/>
<path fill="#FFFFFF" stroke="#000000" stroke-miterlimit="10" d="M22.333,257.167h85.5c11.75,0,14.825,9.167,31.5,9.167
	c13.563,0,21.375-9.167,36-9.167h65"/>
<ellipse fill="#FFFFFF" stroke="#000000" stroke-miterlimit="10" cx="138.667" cy="252.833" rx="21" ry="9.833"/>
<line fill="none" stroke="#000000" stroke-width="2" stroke-miterlimit="10" x1="54.333" y1="256.667" x2="54.333" y2="213.667"/>
<line fill="none" stroke="#000000" stroke-width="2" stroke-miterlimit="10" x1="47.583" y1="221.021" x2="54.833" y2="213.167"/>
<line fill="none" stroke="#000000" stroke-width="2" stroke-miterlimit="10" x1="62.583" y1="221.021" x2="54.833" y2="213.167"/>
<text transform="matrix(1 0 0 1 22.333 21.6665)" font-family="'MyriadPro-Regular'" font-size="12">a)</text>
<text transform="matrix(1 0 0 1 22.333 199.6665)" font-family="'MyriadPro-Regular'" font-size="12">b)</text>
</svg>
